<?xml version="1.0" encoding="utf-8"?>
<!-- Generator: Adobe Illustrator 25.4.1, SVG Export Plug-In . SVG Version: 6.00 Build 0)  -->
<svg version="1.1" id="Layer_1" xmlns="http://www.w3.org/2000/svg" xmlns:xlink="http://www.w3.org/1999/xlink" x="0px" y="0px"
	 viewBox="0 0 598.87 571.03" style="enable-background:new 0 0 598.87 571.03;" xml:space="preserve">
<style type="text/css">
	.st0{fill:#FFFFFF;}
	.st1{fill:#E00520;}
</style>
<g>
	<path class="st0" d="M140.75,115.53c-15.7,7.65-34.41,24.51-34.41,61.39c0,5.68,0.45,11.78,1.34,18.13l0.39,2.85
		c2.28,16.93,9.22,68.53,35.13,122.73c26.04,54.49,50.2,89.24,89.16,128.2c0.29,0.29,29.43,29.12,43.83,36.32
		c10.29,5.15,20.6,5.38,23.21,5.35l-0.33-0.01l0.34,0.01l0.3-0.01l-0.29,0.01c2.66,0.04,12.94-0.19,23.24-5.35
		c14.4-7.21,43.55-36.03,43.84-36.32c38.96-38.96,63.13-73.7,89.17-128.2c25.89-54.19,32.84-105.81,35.13-122.77l0.39-2.9
		c6.87-48.98-14.2-70.24-33.08-79.44C410.44,92.3,357.05,80.52,299.43,80.52C241.82,80.52,188.43,92.3,140.75,115.53"/>
	<path class="st1" d="M342.08,184.27h8.85l0.05-19.69h-0.12L342.08,184.27z M437.37,205.4h-20.69l11.11-52.24h20.68L437.37,205.4z
		 M399.9,205.4h-20.69l8.12-38.2h-12.87l2.96-14.04h46.45l-2.97,14.04h-12.87L399.9,205.4z M351.51,205.4l-0.25-8.39h-14.99
		l-3.87,8.39h-19.84l27.81-52.24h26.85l5.69,52.24H351.51z M288.84,206.77c-18.3,0-24.38-11.16-20.88-27.71
		c2.97-16.3,14.99-27.29,32.64-27.29c13.17,0,23.18,5.37,19.99,20.7h-18.97c0.98-5.92-0.93-7.09-3.47-7.09
		c-5.37,0-7.03,5.5-8.83,13.9c-1.66,7.95-2.51,13.87,2.69,13.87c2.69,0,4.84-1.57,6.28-7.08h19.41
		C314.65,200.47,301.79,206.77,288.84,206.77 M232.12,206.77c-15.77,0-23.48-6.3-20.8-18.9l7.38-34.72h20.71l-7.21,33.86
		c-0.88,4.12,0.74,5.71,2.9,5.71c2.19,0,4.47-1.58,5.35-5.71l7.21-33.86h20.69l-7.39,34.72
		C258.28,200.47,247.88,206.77,232.12,206.77 M207.89,179.85c-3.35,15.76-15.69,25.54-31.77,25.54h-25.73l11.09-52.24H186
		C206.92,153.16,211.19,164.37,207.89,179.85 M452.22,127.63c-50.35-24.54-103.79-33.67-152.79-33.67
		c-49.01,0-102.45,9.13-152.79,33.67c-17.86,8.7-26.85,25.24-26.85,49.29c0,5.09,0.4,10.51,1.21,16.26l0.39,2.91
		c1.6,11.92,5.6,41.56,17.22,76.9c13.34-17.15,66.48-31.77,160.82-36.75c88.92-4.68,152.45-4.37,171.86-4.12
		c3.52-16.36,5.24-29.15,6.17-36.04l0.4-2.91C482.48,160.23,473.85,138.16,452.22,127.63 M181.24,165.01h-2.02l-6.05,28.52h2.03
		c3.32,0,5.54-1.23,7.29-3.32c1.84-2.17,3.06-5.87,4.11-10.93c1.09-5.09,1.45-8.78,0.54-10.93
		C186.25,166.26,184.58,165.01,181.24,165.01 M369.27,258.44c-102.6,16.05-152.23,43.18-176.42,68.73
		c-18.54,19.58-12.09,34.63-7.13,43.26c15.88,24.87,33.42,46.17,56.14,68.9c7.28,7.28,30.36,28.81,40.34,33.81
		c8.23,4.12,16.84,3.94,17.2,3.93c0.41,0.01,9.01,0.2,17.25-3.93c9.98-5,33.06-26.53,40.34-33.81
		c37.77-37.77,61.23-71.51,86.54-124.48c11.14-23.3,18.63-46.15,23.74-65.77l0.08-0.29C444.92,249.25,412.9,251.61,369.27,258.44"/>
</g>
</svg>
