<?xml version="1.0" encoding="utf-8"?>
<!-- Generator: Adobe Illustrator 25.4.1, SVG Export Plug-In . SVG Version: 6.00 Build 0)  -->
<svg version="1.1" id="Layer_1" xmlns="http://www.w3.org/2000/svg" xmlns:xlink="http://www.w3.org/1999/xlink" x="0px" y="0px"
	 viewBox="0 0 511.43 135.27" style="enable-background:new 0 0 511.43 135.27;" xml:space="preserve">
<style type="text/css">
	.st0{fill:#ED1A3A;}
</style>
<g>
	<path class="st0" d="M79.53,56.34h10.38c7.34,0,11.43,2.54,11.43,7.34c0,3.48-2.27,5.78-6.26,6.86c0.81,0.37,1.49,0.98,2.2,1.79
		l6.9,8.49h-6.8l-6.09-7.61c-1.18-1.49-1.69-1.76-4.16-1.76h-2.16v9.37h-5.44V56.34z M84.97,60.33v7.17h4.36
		c4.56,0,6.29-1.39,6.29-3.75c0-2.27-2-3.42-6.29-3.42H84.97z"/>
	<path class="st0" d="M111.38,73.52c0.27,2.33,2.1,3.79,6.29,3.79c3.04,0,6.05-0.57,8.05-1.39v3.79c-1.99,0.98-5.48,1.62-8.66,1.62
		c-7.44,0-11.06-3.89-11.06-9.1c0-4.9,3.28-9.3,10.62-9.3c7.44,0,10.65,3.96,10.65,8.96c0,0.64-0.04,1.18-0.1,1.62H111.38z
		 M111.45,70.24h10.38c-0.51-2.43-2.47-3.55-5.21-3.55C113.88,66.69,111.95,67.8,111.45,70.24z"/>
	<path class="st0" d="M132.78,87.41v-4.23c1.86,0.64,4.56,1.05,7.64,1.05c4.9,0,7.1-1.22,7.1-4.36v-1.08
		c-1.72,1.18-4.5,1.89-7.13,1.89c-6.12,0-9.74-3.35-9.74-8.89c0-5.41,3.48-8.86,9.94-8.86c2.81,0,5.68,1.05,7.3,2.33l0.74-1.79h4.19
		V79.7c0,6.15-4.26,8.79-11.7,8.79C137.68,88.5,134.91,88.16,132.78,87.41z M147.52,75.17v-6.69c-1.83-0.95-3.45-1.42-5.95-1.42
		c-3.59,0-5.51,1.83-5.51,4.73c0,2.91,1.93,4.8,5.51,4.8C144.08,76.59,145.7,76.12,147.52,75.17z"/>
	<path class="st0" d="M163.35,73.52c0.27,2.33,2.1,3.79,6.29,3.79c3.04,0,6.05-0.57,8.05-1.39v3.79c-1.99,0.98-5.48,1.62-8.66,1.62
		c-7.44,0-11.06-3.89-11.06-9.1c0-4.9,3.28-9.3,10.62-9.3c7.44,0,10.65,3.96,10.65,8.96c0,0.64-0.04,1.18-0.1,1.62H163.35z
		 M163.41,70.24h10.38c-0.51-2.43-2.47-3.55-5.21-3.55C165.85,66.69,163.92,67.8,163.41,70.24z"/>
	<path class="st0" d="M182.96,79.91v-3.82c1.56,0.64,5.14,1.32,7.71,1.32c3.15,0,5.04-0.37,5.04-1.52c0-1.05-1.52-1.35-4.94-1.83
		c-4.97-0.68-7.74-2.16-7.74-5.55c0-3.58,2.91-5.55,9.57-5.55c2.67,0,6.12,0.64,7.41,1.42v3.79c-1.56-0.68-5.01-1.32-7.41-1.32
		c-2.57,0-4.26,0.37-4.26,1.49c0,1.05,1.55,1.32,4.97,1.79c5.04,0.71,7.71,2.03,7.71,5.55s-3.62,5.65-10.35,5.65
		C187.56,81.33,184.31,80.62,182.96,79.91z"/>
	<path class="st0" d="M219.17,79.06c-1.72,1.45-4.23,2.3-7.34,2.3c-4.7,0-7.54-1.93-7.54-5.41c0-4.33,4.67-5.61,11.09-5.61
		c1.12,0,2.37,0.03,3.52,0.1c-0.04-2.43-1.89-3.42-5.41-3.42c-2.94,0-5.38,0.61-7.37,1.42v-3.85c1.96-0.98,4.77-1.66,7.91-1.66
		c6.39,0,10.11,2.03,10.11,7.13v10.75h-4.63L219.17,79.06z M218.9,76.29v-2.74h-2.71c-4.6,0-6.49,0.54-6.49,2.2
		c0,1.12,0.98,2.1,3.38,2.1C215.69,77.84,217.41,77.07,218.9,76.29z"/>
	<path d="M250.92,56.34h4.02l12.24,24.48h-3.89l-3.04-6.05h-14.74l-3.01,6.05h-3.82L250.92,56.34z M246.76,71.93H259l-6.12-12.38
		L246.76,71.93z"/>
	<path d="M269.65,72.13c0-5.17,3.35-9.06,10.35-9.06c2.33,0,4.73,0.44,6.19,1.08v2.74c-1.52-0.61-3.79-1.12-6.26-1.12
		c-4.83,0-6.83,2.57-6.83,6.36c0,4.16,2.6,6.39,6.63,6.39c3.08,0,5.24-0.74,6.73-1.42v2.81c-1.66,0.71-3.58,1.32-7.07,1.32
		C273.27,81.23,269.65,77.61,269.65,72.13z"/>
	<path d="M290.85,72.13c0-5.17,3.35-9.06,10.35-9.06c2.33,0,4.73,0.44,6.19,1.08v2.74c-1.52-0.61-3.79-1.12-6.26-1.12
		c-4.83,0-6.83,2.57-6.83,6.36c0,4.16,2.6,6.39,6.63,6.39c3.08,0,5.24-0.74,6.73-1.42v2.81c-1.66,0.71-3.58,1.32-7.07,1.32
		C294.47,81.23,290.85,77.61,290.85,72.13z"/>
	<path d="M330.1,76.97v2.67c-1.96,0.91-4.4,1.59-7.88,1.59c-6.83,0-10.18-3.92-10.18-9.33c0-4.97,3.52-8.83,9.67-8.83
		c6.05,0,9.57,3.55,9.57,8.45c0,0.44-0.04,1.01-0.07,1.32H315.4c0.24,3.45,2.54,5.68,7.2,5.68
		C325.94,78.52,328.08,77.78,330.1,76.97z M315.43,70.27h12.58c-0.3-2.74-2.87-4.63-6.29-4.63C318.3,65.64,315.7,67.53,315.43,70.27
		z"/>
	<path d="M336.09,79.98v-2.57c1.49,0.54,4.56,1.15,7.07,1.15c4.12,0,6.09-0.88,6.09-2.47c0-1.69-1.83-2.03-5.14-2.67
		c-5.31-0.98-7.78-2.03-7.78-5.31c0-3.08,2.57-5.04,8.66-5.04c2.77,0,5.07,0.54,6.56,1.28v2.6c-1.59-0.68-3.96-1.22-6.56-1.22
		c-3.75,0-5.24,0.78-5.24,2.33c0,1.69,1.83,1.99,5.14,2.64c5.28,0.98,7.78,2.06,7.78,5.34c0,3.08-3.28,5.17-9.5,5.17
		C340.42,81.23,337.58,80.65,336.09,79.98z"/>
	<path d="M357.35,72.13c0-5.14,3.25-9.06,10.45-9.06c7.3,0,10.45,3.89,10.45,9.1c0,5.14-3.25,9.06-10.45,9.06
		C360.5,81.23,357.35,77.34,357.35,72.13z M374.8,72.16c0-3.92-2.2-6.49-7-6.49s-7,2.54-7,6.46s2.2,6.49,7,6.49
		S374.8,76.09,374.8,72.16z"/>
	<path d="M384.44,63.47h3.01l0.27,3.14c1.18-1.83,3.18-3.48,6.53-3.48c1.25,0,2.33,0.17,3.08,0.44v2.98
		c-0.98-0.27-2.2-0.41-3.48-0.41c-3.62,0-5.31,2.13-6.05,3.38v11.29h-3.35V63.47z"/>
	<path d="M402.09,56.34h3.35v3.65h-3.35V56.34z M402.09,63.47h3.35v17.35h-3.35V63.47z"/>
	<path d="M411.62,72.13c0-5.14,3.25-9.06,10.45-9.06c7.3,0,10.45,3.89,10.45,9.1c0,5.14-3.25,9.06-10.45,9.06
		C414.77,81.23,411.62,77.34,411.62,72.13z M429.07,72.16c0-3.92-2.2-6.49-7-6.49s-7,2.54-7,6.46s2.2,6.49,7,6.49
		S429.07,76.09,429.07,72.16z"/>
	<path d="M437.52,79.98v-2.57c1.49,0.54,4.56,1.15,7.07,1.15c4.12,0,6.09-0.88,6.09-2.47c0-1.69-1.83-2.03-5.14-2.67
		c-5.31-0.98-7.78-2.03-7.78-5.31c0-3.08,2.57-5.04,8.66-5.04c2.77,0,5.07,0.54,6.56,1.28v2.6c-1.59-0.68-3.96-1.22-6.56-1.22
		c-3.75,0-5.24,0.78-5.24,2.33c0,1.69,1.83,1.99,5.14,2.64c5.28,0.98,7.78,2.06,7.78,5.34c0,3.08-3.28,5.17-9.5,5.17
		C441.85,81.23,439.01,80.65,437.52,79.98z"/>
</g>
</svg>
